<svg fill="#000000" xmlns="http://www.w3.org/2000/svg" viewBox="0 0 32 32"><path d="M28.5,1H3.5A2.5,2.5,0,0,0,1,3.5v25A2.5,2.5,0,0,0,3.5,31h25A2.5,2.5,0,0,0,31,28.5V3.5A2.5,2.5,0,0,0,28.5,1ZM3.5,2h25A1.5,1.5,0,0,1,30,3.5V21L23.93,16A2.48,2.48,0,0,0,21,15.85l-9.5,6-2.6-1.95a2.5,2.5,0,0,0-2.86-.1L2,22.47V3.5A1.5,1.5,0,0,1,3.5,2Zm25,28H3.5A1.5,1.5,0,0,1,2,28.5V23.66l4.6-3a1.51,1.51,0,0,1,1.72.06L11.2,22.9a.51.51,0,0,0,.57,0l9.78-6.22a1.49,1.49,0,0,1,1.75.1L30,22.24V28.5A1.5,1.5,0,0,1,28.5,30Z"></path><path d="M12.5,14A3.5,3.5,0,1,0,9,10.5,3.5,3.5,0,0,0,12.5,14Zm0-6A2.5,2.5,0,1,1,10,10.5,2.5,2.5,0,0,1,12.5,8Z"></path></svg>
