<svg fill="#000000" xmlns="http://www.w3.org/2000/svg" viewBox="0 0 32 32"><path d="M28.5,31H3.5A2.5,2.5,0,0,1,1,28.5V3.5A2.5,2.5,0,0,1,3.5,1h25A2.5,2.5,0,0,1,31,3.5v25A2.5,2.5,0,0,1,28.5,31ZM3.5,2A1.5,1.5,0,0,0,2,3.5v25A1.5,1.5,0,0,0,3.5,30h25A1.5,1.5,0,0,0,30,28.5V3.5A1.5,1.5,0,0,0,28.5,2Z"></path><path d="M12.5,22.69a1.56,1.56,0,0,1-.75-.2,1.5,1.5,0,0,1-.75-1.3V10.81a1.5,1.5,0,0,1,2.25-1.3l9,5.19a1.5,1.5,0,0,1,0,2.6l-9,5.19A1.53,1.53,0,0,1,12.5,22.69Zm0-12.38a.5.5,0,0,0-.25.07.47.47,0,0,0-.25.43V21.19a.47.47,0,0,0,.25.43.5.5,0,0,0,.5,0l9-5.19a.5.5,0,0,0,0-.87h0l-9-5.18A.42.42,0,0,0,12.5,10.31Z"></path></svg>
